<?xml version="1.0" encoding="UTF-8"?>
<svg xmlns="http://www.w3.org/2000/svg" version="1.1" viewBox="0 0 100 100" width="100%" height="100%">
 <path fill="currentColor" d="m94.559 89.613-5.1523-2.9766c-0.68359-0.39453-1.5586-0.16406-1.957 0.51953-0.39453 0.68359-0.16406 1.5586 0.51953 1.957l0.61328 0.35547h-78.051v-78.051l0.35547 0.61328c0.39453 0.68359 1.2734 0.91797 1.957 0.51953 0.68359-0.39453 0.91797-1.2734 0.51953-1.957l-2.9766-5.1523c-0.52344-1.0703-2.0586-1.0703-2.582 0l-2.9766 5.1523c-0.39453 0.68359-0.16406 1.5586 0.51953 1.957 0.68359 0.39453 1.5586 0.16406 1.957-0.51953l0.35547-0.61328v79.484c0 0.79297 0.64062 1.4336 1.4336 1.4336h79.484l-0.61328 0.35547c-0.68359 0.39453-0.91797 1.2734-0.51953 1.957 0.39453 0.68359 1.2734 0.91797 1.957 0.51953l5.1523-2.9766c1.0703-0.52344 1.0703-2.0586 0-2.582z"/>
 <path fill="currentColor" d="m16.027 17.113h10.492v66.859h-10.492z"/>
 <path fill="currentColor" d="m37.016 83.973h10.492v-18.812h-4.2812c-0.52734 0-0.98047-0.26172-1.2422-0.71875-0.26172-0.45703-0.26172-0.98047 0.003906-1.4375l5.5234-9.5312v-26.051h-10.492v56.547z"/>
 <path fill="currentColor" d="m85.145 49.77c0.23438 0.53125 0.14062 1.1133-0.24609 1.5469l-8.3906 9.2656v23.395h10.492v-73.652h-10.492v38.594h7.3281c0.57812 0 1.0781 0.32422 1.3125 0.85156z"/>
 <path fill="currentColor" d="m80.602 51.785h-15.23l8.1133-14.051h-13.539l-14.23 24.559h13.434l-7.7031 21.68z"/>
 <path fill="currentColor" d="m66.719 18.551h3.4961c0.79297 0 1.4336-0.64062 1.4336-1.4336 0-0.79297-0.64063-1.4336-1.4336-1.4336h-3.4961c-0.79297 0-1.4336 0.64062-1.4336 1.4336 0 0.79297 0.64062 1.4336 1.4336 1.4336z"/>
 <path fill="currentColor" d="m58.914 27.426c0 0.79297 0.64063 1.4336 1.4336 1.4336h3.4961c0.79297 0 1.4336-0.64062 1.4336-1.4336s-0.64062-1.4336-1.4336-1.4336h-3.4961c-0.79297 0-1.4336 0.64062-1.4336 1.4336z"/>
 <path fill="currentColor" d="m67.395 27.426c0 0.79297 0.64062 1.4336 1.4336 1.4336h3.4961c0.79297 0 1.4336-0.64062 1.4336-1.4336s-0.64062-1.4336-1.4336-1.4336h-3.4961c-0.79297 0-1.4336 0.64062-1.4336 1.4336z"/>
 <path fill="currentColor" d="m58.242 18.551h3.4961c0.79297 0 1.4336-0.64062 1.4336-1.4336 0-0.79297-0.64062-1.4336-1.4336-1.4336h-3.4961c-0.79297 0-1.4336 0.64062-1.4336 1.4336 0 0.79297 0.64062 1.4336 1.4336 1.4336z"/>
 <path fill="currentColor" d="m32.812 18.551h3.4961c0.79297 0 1.4336-0.64062 1.4336-1.4336 0-0.79297-0.64063-1.4336-1.4336-1.4336h-3.4961c-0.79297 0-1.4336 0.64062-1.4336 1.4336 0 0.79297 0.64062 1.4336 1.4336 1.4336z"/>
 <path fill="currentColor" d="m41.289 18.551h3.4961c0.79297 0 1.4336-0.64062 1.4336-1.4336 0-0.79297-0.64062-1.4336-1.4336-1.4336h-3.4961c-0.79297 0-1.4336 0.64062-1.4336 1.4336 0 0.79297 0.64062 1.4336 1.4336 1.4336z"/>
 <path fill="currentColor" d="m50.441 27.426c0 0.79297 0.64062 1.4336 1.4336 1.4336h3.4961c0.79297 0 1.4336-0.64062 1.4336-1.4336s-0.64063-1.4336-1.4336-1.4336h-3.4961c-0.79297 0-1.4336 0.64062-1.4336 1.4336z"/>
 <path fill="currentColor" d="m49.766 18.551h3.4961c0.79297 0 1.4336-0.64062 1.4336-1.4336 0-0.79297-0.64062-1.4336-1.4336-1.4336h-3.4961c-0.79297 0-1.4336 0.64062-1.4336 1.4336 0 0.79297 0.64062 1.4336 1.4336 1.4336z"/>
</svg>