<svg height="512" viewBox="0 0 32 32" width="512" xmlns="http://www.w3.org/2000/svg"><g id="_x31_5"><path d="m27 8c0-1.6542969-1.3457031-3-3-3s-3 1.3457031-3 3 1.3457031 3 3 3 3-1.3457031 3-3zm-4 0c0-.5517578.4482422-1 1-1s1 .4482422 1 1-.4482422 1-1 1-1-.4482422-1-1z"/><path d="m29 23h-.7636719l-1.7890625-.8945313c-.4931641-.2451172-1.09375-.046875-1.3417969.4472656l-.9277344 1.8544922-.5917968.5927735h-.5859375c-.265625 0-.5195313.1054688-.7070313.2929688l-.8554687.8554687-.4892578-1.4648438c-.0488281-.1474609-.1318359-.28125-.2412109-.390625l-.8847656-.8857422-.9277344-1.8544922c-.1435547-.2871094-.4169922-.4882813-.734375-.5400391-.3232422-.0546875-.6416016.0527344-.8671875.2802734l-1 1c-.1875.1875002-.2929688.4414064-.2929688.7070314v1.5859375l-1.5927734 1.5917969-1.4140625.7070313c-.0371094-.3232422-.2324219-.6220703-.5458984-.7792969l-1.7021484-.8505859-.8505859-1.7021484c-.169922-.3388673-.5156251-.5527345-.8945314-.5527345h-1c-.265625 0-.5195313.1054688-.7070313.2929688l-1 1c-.1874999.1875-.2929687.4414062-.2929687.7070312v.3818359l-.8027344.4013672-.1972656-.1972656v-2.5859375h1c.265625 0 .5195313-.1054688.7070313-.2929688l1-1c.3369141-.3369141.3896484-.8652344.125-1.2617188l-.6611328-.9912109 2.6328125.5263672c.2792969.0537109.5693359-.0097656.7958984-.1806641l3.9287109-2.9453125 1.9189453-.9599609c.3613281-.1806641.5791016-.5615234.5498047-.9658203-.0283203-.4033203-.296875-.7490234-.6806641-.8769531l-1.9101562-.6367187 1.0410156-.5205078c.2871094-.1435547.4882813-.4169922.5400391-.734375s-.0527344-.6396484-.2802734-.8671875l-2-2c-.3378906-.3378906-.8671875-.390625-1.2617188-.125l-3 2c-.2783203.1855468-.4453125.4980468-.4453125.8320312v1.3818359l-.5527344.2763672-.5527344-1.1054688c-.2470703-.4941406-.8476563-.6923828-1.3417969-.4472656l-1.2099609.6054688-1.2392578-1.8583984.671875-2.015625 3.4667969-.8671875c.1757813-.0439453.3369141-.1347656.4648438-.2626953l2-2c.3046875-.3046875.3798828-.7695313.1875-1.1542969l-1-2c-.2470704-.4941406-.8476563-.6923828-1.3417969-.4472656-.4941406.2470703-.694336.8476562-.4472656 1.3417968l.6777344 1.3554688-1.2949219 1.2939453-3.7304688.9335937c-.3320312.0820313-.5986328.3291016-.7060547.6533204l-1 3c-.0976563.2929688-.0546875.6142578.1162109.8710938l2 3c.2802734.4199219.828125.5644531 1.2792969.3398438l1.1054688-.5527344.5527344 1.1054688c.2480469.4941406.8476563.6933594 1.3417969.4472656l2-1c.3388671-.169922.5527343-.5156251.5527343-.8945314v-1.4648438l1.8730469-1.2480469.4384766.4384766-.7587891.3798828c-.3388672.1699219-.5527344.5156251-.5527344.8945313v1c0 .4306641.2753906.8125.6835938.9482422l.7285156.2431641c-.0039063.0029297-.0078125.0058594-.0117188.0087891l-3.6425781 2.7314453-4.5615234-.9121094c-.3935547-.0820313-.8017578.0878906-1.0273438.4238281-.2246094.3359375-.2255859.7744141-.0009766 1.1113281l1.5449219 2.3183594-.1269531.1269531h-1.5859375c-.5527344 0-1 .4472656-1 1v4c0 .265625.1054688.5195313.2929688.7070313l1 1c.3056641.3056641.7705078.3798828 1.1542969.1875l2-1c.3388671-.1699219.5527343-.515625.5527343-.8945313v-.5859375l.3925781-.3925781.7128906 1.4257813c.0966797.1933594.2539063.3505859.4472656.4472656l1.1054688.5527344-.5527344 1.1054688c-.1923828.3847656-.1171875.8496094.1875 1.1542969.1923829.1923827.4482422.2929686.7070313.2929686.1523438 0 .3046875-.0341797.4472656-.1054688l4-2c.0957031-.0478516.1835938-.1113281.2597656-.1875l2-2c.1875001-.1874999.2929688-.4414062.2929688-.7070312v-.7636719l.1054688.2109375c.0478516.0957031.1113281.1835938.1875.2597656l.8330078.8330078.9257813 2.7763672c.109375.3291016.3808594.5771484.71875.6572266.3388672.078125.6923828-.0214844.9365234-.2666016l1.7070312-1.7070312h.5859375c.265625 0 .5195313-.1054688.7070313-.2929688l1-1c.0761719-.0761719.1396484-.1640625.1875-.2597656l.5527344-1.1054688 1.1054688.5527344c.1386718.069336.2919921.1054688.4472655.1054688h1c.5527344 0 1-.4472656 1-1s-.4472656-1-1-1z"/><path d="m22.7451172 18.890625c-.28125-.0507813-.5507813-.1171875-.8056641-.1992188-.5292969-.1708984-1.0888672.1191406-1.2587891.6435547-.1699219.5253906.1181641 1.0888672.6435547 1.2587891.3398438.1103516.6992188.1992188 1.0673828.265625.0605469.0107422.1191406.015625.1777344.015625.4755859 0 .8964844-.3398438.9833984-.8232422.0976563-.5439453-.2646484-1.0634765-.8076171-1.1611328z"/><path d="m26.0742188 18.6875c-.2529297.0830078-.5224609.1503906-.8027344.2021484-.5439453.0986328-.9042969.6191406-.8046875 1.1621094.0878906.4833984.5087891.8212891.9824219.8212891.0595703 0 .1191406-.0048828.1796875-.0166016.3701172-.0664063.7294922-.1572266 1.0683594-.2685547.5244141-.171875.8105469-.7373047.6386719-1.2617188s-.7353517-.8115234-1.2617188-.6386718z"/><path d="m18.9394531 16.1210938c-.5507813.0361328-.96875.5117188-.9335938 1.0625.0302734.4736328.1787109.9316406.4384766 1.3613281.1884766.3105469.5185547.4814453.8564453.4814453.1767578 0 .3554688-.046875.5175781-.1445313.4716797-.2861328.6230469-.9013672.3369141-1.3740234-.0927734-.1513672-.1435547-.3037109-.1533203-.453125-.0361328-.5507812-.5146484-.9550781-1.0625-.9335937z"/><path d="m27.9990234 17.0449219c-.0087891.1494141-.0585938.3017578-.1484375.4521484-.2822266.4746094-.1269531 1.0878906.3476563 1.3710938.1601563.0957031.3369141.140625.5107422.140625.3408203 0 .6728516-.1738281.8603516-.4882813.2568359-.4306641.4003906-.890625.4257813-1.3662109.03125-.5507813-.3916016-1.0224609-.9433594-1.0527344-.5488282-.0595703-1.022461.3916016-1.0527345.9433594z"/><path d="m19.6845703 15.3242188c.1845703.3222656.5224609.5029297.8691406.5029297.1679688 0 .3388672-.0419922.4960938-.1318359.0264893-.0151978.0564575-.027832.0836182-.0426025 1.168396 1.3476563 2.2312012 2.1223755 2.2835693 2.15979.1738281.1249999.3789062.1874999.5830078.1874999s.4072266-.0625.5810547-.1865234c.0969238-.0687256 1.1450806-.8301392 2.2941284-2.1563721.0236206.0129395.0499268.0239868.0730591.0372314.1572266.0898438.328125.1318359.4960938.1318359.3466797 0 .6845703-.1806641.8691406-.5029297.2451782-.4284668.1237793-.9492798-.2438354-1.2538452 1.0494994-1.600891 1.9303588-3.6541137 1.9303588-6.0693969 0-.9033203-.1943359-1.7685547-.5761719-2.5673828-.9873047-2.0849609-3.1162109-3.4326172-5.4238281-3.4326172-3.3085938 0-6 2.6914063-6 6 0 2.090332.6477661 4.1283569 1.9279785 6.0708008-.3671264.3046264-.4885254.8251343-.2434082 1.253418zm4.3154297-11.3242188c1.5390625 0 2.9580078.8984375 3.6171875 2.2919922.2539063.5302734.3828125 1.1054687.3828125 1.7080078 0 3.7744141-2.765625 6.6259766-4 7.7099609-.484375-.4238281-1.203125-1.1181641-1.8955078-2.0263672-1.3964844-1.8310546-2.1044922-3.743164-2.1044922-5.6835937 0-2.2060547 1.7939453-4 4-4z"/></g></svg>