<svg xmlns="http://www.w3.org/2000/svg" version="1.1" xmlns:xlink="http://www.w3.org/1999/xlink" width="512" height="512" x="0" y="0" viewBox="0 0 24 24" style="enable-background:new 0 0 512 512" xml:space="preserve"><g><path d="M12 16c-2.206 0-4-1.794-4-4s1.794-4 4-4 4 1.794 4 4-1.794 4-4 4ZM5.5 7a1.5 1.5 0 1 0 .001 3.001A1.5 1.5 0 0 0 5.5 7ZM17 9.5a1.5 1.5 0 1 0 3.001-.001A1.5 1.5 0 0 0 17 9.5ZM5.5 13a1.5 1.5 0 1 0 .001 3.001A1.5 1.5 0 0 0 5.5 13ZM17 15.5a1.5 1.5 0 1 0 3.001-.001A1.5 1.5 0 0 0 17 15.5ZM.001 22.268V6.515a3.386 3.386 0 0 1 1.836-3.026c1.316-.679 3.32-1.488 5.391-1.488 1.679 0 3.299.549 4.867 1.079 1.398.474 2.72.921 3.904.921 1.112 0 1.93-.302 2.721-.595.368-.136.704-.258 1.018-.341.981-.259 2.021-.042 2.854.598A3.608 3.608 0 0 1 23.999 6.5v13.67l-.881.399c-.129.059-3.194 1.431-6.346 1.431-1.66 0-3.4-.543-5.083-1.068-1.468-.458-2.987-.932-4.19-.932-2.49 0-5.348 1.289-5.377 1.301l-2.121.967ZM7.5 17c1.66 0 3.4.543 5.083 1.068 1.468.458 2.987.932 4.19.932 1.604 0 3.251-.478 4.227-.822V6.5a.604.604 0 0 0-.237-.459c-.062-.049-.155-.104-.256-.076-.23.061-.476.155-.745.254C18.87 6.549 17.65 7 16 7c-1.679 0-3.299-.549-4.867-1.079C9.735 5.447 8.413 5 7.229 5c-1.546 0-3.18.723-4.016 1.154a.402.402 0 0 0-.213.36V17.78c1.251-.391 2.898-.78 4.5-.78Z" fill="white" opacity="1" data-original="#000000"></path></g></svg>