<svg fill="none" height="512" viewBox="0 0 30 30" width="512" xmlns="http://www.w3.org/2000/svg"><path id="Union" clip-rule="evenodd" d="m6.16117 22.6317c-4.68629-4.6863-4.68629-12.2842 0-16.97053 4.68633-4.686296 12.28423-4.686297 16.97053 0 2.3434 2.34334 3.5148 5.41263 3.5148 8.48523 0 .5523.4477 1 1 1 .5522 0 1-.4477 1-1 0-3.5813-1.3671-7.16597-4.1006-9.89945-5.4673-5.46734-14.3316-5.46734-19.79894 0-5.467341 5.46734-5.467341 14.33165 0 19.79895 2.73347 2.7335 6.31814 4.1005 9.89954 4.1005.5522 0 1-.4477 1-1 0-.5522-.4478-1-1-1-3.0727 0-6.14199-1.1713-8.48533-3.5147zm9.53813-8.7165c-.366-.1348-.777-.0446-1.0528.2312-.2758.2759-.3661.6869-.2313 1.0529l4.9498 13.435c.1547.42.5698.686 1.016.6513.4463-.0348.8151-.362.9029-.8009l1.2835-6.4173 6.4173-1.2835c.439-.0878.7661-.4566.8009-.9029s-.2313-.8613-.6513-1.016zm5.0376 7.1062-.7196 3.5982-2.9764-8.0787 8.0787 2.9764-3.5982.7196c-.3958.0792-.7053.3886-.7845.7845zm-11.74729-12.53181c-3.1242 3.12421-3.1242 8.18951 0 11.31371.90438.9044 1.96899 1.5456 3.10139 1.9261.5235.1759.8053.7429.6293 1.2665-.1759.5235-.7429.8053-1.2664.6293-1.4186-.4767-2.75089-1.2801-3.87851-2.4077-3.90524-3.9052-3.90524-10.2369 0-14.14212 3.90521-3.90524 10.23691-3.90524 14.14211 0 1.1276 1.12761 1.931 2.45995 2.4077 3.87852.176.5235-.1058 1.0905-.6293 1.2664-.5235.176-1.0906-.1058-1.2665-.6293-.3805-1.1324-1.0217-2.19702-1.9261-3.10141-3.1242-3.12419-8.1895-3.12419-11.31369 0zm2.82839 8.48531c-1.5621-1.5621-1.5621-4.0948 0-5.6569 1.5621-1.56208 4.0948-1.56208 5.6569 0 .1946.1947.3644.4036.5098.6231.3051.4604.9256.5863 1.386.2813s.5863-.9256.2813-1.386c-.2188-.3302-.4732-.6429-.7629-.93259-2.3432-2.34315-6.1421-2.34315-8.4853 0-2.34314 2.34319-2.34314 6.14209 0 8.48529.2897.2897.6024.5441.9326.7629.4604.305 1.081.1791 1.386-.2813s.1791-1.0809-.2813-1.386c-.2195-.1454-.4284-.3152-.6231-.5098z" fill="#7e7e7e" fill-rule="evenodd"/></svg>