<svg id="Layer_1" enable-background="new 0 0 510 510" height="512" viewBox="0 0 510 510" width="512" xmlns="http://www.w3.org/2000/svg"><g><path d="m60 60h30v30h-30z"/><path d="m60 120h30v30h-30z"/><path d="m60 180h30v30h-30z"/><path d="m60 240h30v30h-30z"/><path d="m60 300h30v30h-30z"/><path d="m253.417 321.708-26.834-13.416-40.853 81.708h45l-19.147 38.292 26.834 13.416 40.854-81.708h-45.001z"/><path d="m480 240v-60h-84.271l-30 60h-50.729v-60h-82.5l-45 60h-37.5v-240h-150v510h510v-270zm-360 240h-30v-105h-30v105h-30v-450h90zm360 0h-330v-210h52.5l45-60h37.5v60h99.271l30-60h35.729v60h30z"/><path d="m330 300h30v30h-30z"/><path d="m420 300h30v30h-30z"/><path d="m330 360h30v30h-30z"/><path d="m420 360h30v30h-30z"/><path d="m330 420h30v30h-30z"/><path d="m420 420h30v30h-30z"/></g></svg>