<?xml version="1.0" encoding="UTF-8"?>
<svg xmlns="http://www.w3.org/2000/svg" xmlns:xlink="http://www.w3.org/1999/xlink" version="1.1" id="Capa_1" x="0px" y="0px" viewBox="0 0 512 512" style="enable-background:new 0 0 512 512;" xml:space="preserve" width="512" height="512">
<g>
	<polyline style="fill:none;stroke:#000000;stroke-width:30;stroke-miterlimit:10;" points="105.386,496.999 105.386,75.005 &#10;&#9;&#9;406.614,75.005 406.614,496.999 &#9;"/>
	<polyline style="fill:none;stroke:#000000;stroke-width:30;stroke-miterlimit:10;" points="135.388,75.005 135.388,15.001 &#10;&#9;&#9;376.612,15.001 376.612,75.005 &#9;"/>
	<line style="fill:none;stroke:#000000;stroke-width:30;stroke-miterlimit:10;" x1="0" y1="496.999" x2="512" y2="496.999"/>
	<polyline style="fill:none;stroke:#000000;stroke-width:30;stroke-miterlimit:10;" points="472.618,496.999 472.618,139.141 &#10;&#9;&#9;406.614,139.141 &#9;"/>
	<polyline style="fill:none;stroke:#000000;stroke-width:30;stroke-miterlimit:10;" points="39.382,496.999 39.382,139.141 &#10;&#9;&#9;105.386,139.141 &#9;"/>
	<line style="fill:none;stroke:#000000;stroke-width:30;stroke-miterlimit:10;" x1="256" y1="409.367" x2="256" y2="496.999"/>
	<polyline style="fill:none;stroke:#000000;stroke-width:30;stroke-miterlimit:10;" points="195.996,496.999 195.996,409.367 &#10;&#9;&#9;316.004,409.367 316.004,496.999 &#9;"/>
	
		<line style="fill:none;stroke:#000000;stroke-width:30;stroke-miterlimit:10;" x1="150.389" y1="339.363" x2="235.999" y2="339.363"/>
	
		<line style="fill:none;stroke:#000000;stroke-width:30;stroke-miterlimit:10;" x1="276.001" y1="339.363" x2="361.611" y2="339.363"/>
	
		<line style="fill:none;stroke:#000000;stroke-width:30;stroke-miterlimit:10;" x1="150.389" y1="279.359" x2="235.999" y2="279.359"/>
	
		<line style="fill:none;stroke:#000000;stroke-width:30;stroke-miterlimit:10;" x1="276.001" y1="279.359" x2="361.611" y2="279.359"/>
	
		<line style="fill:none;stroke:#000000;stroke-width:30;stroke-miterlimit:10;" x1="150.389" y1="219.355" x2="235.999" y2="219.355"/>
	
		<line style="fill:none;stroke:#000000;stroke-width:30;stroke-miterlimit:10;" x1="276.001" y1="219.355" x2="361.611" y2="219.355"/>
	
		<line style="fill:none;stroke:#000000;stroke-width:30;stroke-miterlimit:10;" x1="150.389" y1="159.351" x2="235.999" y2="159.351"/>
	
		<line style="fill:none;stroke:#000000;stroke-width:30;stroke-miterlimit:10;" x1="276.001" y1="159.351" x2="361.611" y2="159.351"/>
</g>















</svg>
