<svg xmlns="http://www.w3.org/2000/svg" version="1.1" xmlns:xlink="http://www.w3.org/1999/xlink" width="512" height="512" x="0" y="0" viewBox="0 0 24 24" style="enable-background:new 0 0 512 512" xml:space="preserve" class=""><g><path d="M20.5 2h-12C6.57 2 5 3.57 5 5.5V17h19V5.5C24 3.57 22.43 2 20.5 2Zm.5 12H8V5.5c0-.28.22-.5.5-.5h12c.28 0 .5.22.5.5V14ZM3 19h16v3H0V10.5c0-1.76 1.31-3.2 3-3.45V19Zm14-9.5a2.5 2.5 0 0 1-5 0 2.5 2.5 0 0 1 5 0Z" fill="white" opacity="1" data-original="#000000"></path></g></svg>