<svg xmlns="http://www.w3.org/2000/svg" version="1.1" xmlns:xlink="http://www.w3.org/1999/xlink" width="512" height="512" x="0" y="0" viewBox="0 0 24 24" style="enable-background:new 0 0 512 512" xml:space="preserve" class=""><g><path d="M13.5 6v5.055l3.671 2.299-1.593 2.543-5.079-3.182V6h3Zm5.675 11.433 2.39 1.813a12.04 12.04 0 0 0 1.542-2.696l-2.775-1.139c-.295.72-.684 1.4-1.156 2.021ZM12 21c-.382 0-.765-.033-1.142-.081C6.434 20.355 3 16.575 3 12c0-4.963 4.037-9 9-9 2.437 0 4.696.98 6.356 2.644L16 8h5.909C22.511 8 23 7.512 23 6.909V1l-2.515 2.515A11.949 11.949 0 0 0 12 0C5.383 0 0 5.383 0 12c0 6.036 4.75 12 12 12 .572 0 1.147-.041 1.709-.121l-.424-2.97c-.422.06-.854.091-1.285.091Zm11.9-10.555-2.976.384a9.151 9.151 0 0 1 .002 2.333l2.976.384a12.248 12.248 0 0 0-.001-3.101Zm-8.366 9.834 1.18 2.759c.954-.408 1.853-.94 2.673-1.582l-1.849-2.362a9.003 9.003 0 0 1-2.004 1.185Z" fill="white" opacity="1" data-original="#000000" class=""></path></g></svg>